P3
# Created by GIMP version 2.10.22 PNM plug-in
65 53
255
0
0
52
0
0
52
0
0
52
0
0
52
0
0
52
0
0
52
0
0
52
0
0
52
0
0
52
0
0
52
0
0
52
3
0
53
3
0
53
3
0
53
3
0
53
3
0
53
3
0
53
3
0
53
3
0
53
3
0
53
3
0
53
3
0
53
3
0
53
3
0
53
3
0
53
3
0
53
3
0
53
0
0
52
0
0
52
0
0
52
0
0
52
0
0
52
0
0
52
0
0
52
0
0
52
0
0
52
0
0
52
0
0
52
0
0
52
0
0
52
0
0
52
0
0
52
0
0
52
0
0
52
0
0
52
0
0
52
0
0
52
0
0
52
0
0
52
0
0
52
0
0
52
0
0
52
0
0
52
0
0
52
0
0
52
0
0
52
0
0
52
0
0
52
0
0
52
0
0
50
0
0
50
0
0
50
0
0
50
0
0
50
0
0
50
0
0
52
0
0
52
0
0
52
0
0
52
0
0
52
0
0
52
0
0
52
0
0
52
0
0
52
0
0
52
0
0
52
3
0
53
3
0
53
3
0
53
3
0
53
3
0
53
3
0
53
3
0
53
3
0
53
3
0
53
3
0
53
3
0
53
3
0
53
3
0
53
3
0
53
3
0
53
3
0
53
0
0
52
0
0
52
0
0
52
0
0
52
0
0
52
0
0
52
0
0
52
0
0
52
0
0
52
0
0
52
0
0
52
0
0
52
0
0
52
0
0
52
0
0
52
0
0
52
0
0
52
0
0
52
0
0
52
0
0
52
0
0
52
0
0
52
0
0
52
0
0
52
0
0
52
0
0
52
0
0
52
0
0
52
0
0
52
0
0
52
0
0
52
0
0
52
0
0
50
0
0
50
0
0
50
0
0
50
0
0
50
0
0
50
0
0
52
0
0
52
0
0
52
0
0
52
0
0
52
0
0
52
0
0
52
0
0
52
0
0
52
0
0
52
0
0
52
3
0
53
3
0
53
3
0
53
3
0
53
3
0
53
3
0
53
3
0
53
3
0
53
3
0
53
3
0
53
3
0
53
3
0
53
3
0
53
3
0
53
3
0
53
3
0
53
0
0
52
0
0
52
0
0
52
0
0
52
0
0
52
0
0
52
0
0
52
0
0
52
0
0
52
0
0
52
0
0
52
0
0
52
0
0
52
0
0
52
0
0
52
0
0
52
0
0
52
0
0
52
0
0
52
0
0
52
0
0
52
0
0
52
0
0
52
0
0
52
0
0
52
0
0
52
0
0
52
0
0
52
0
0
52
0
0
52
0
0
52
0
0
52
0
0
50
0
0
50
0
0
50
0
0
50
0
0
50
0
0
50
0
0
52
0
0
52
0
0
52
0
0
52
0
0
52
0
0
52
0
0
52
0
0
52
0
0
52
0
0
52
0
0
52
3
0
53
3
0
53
3
0
53
3
0
53
3
0
53
3
0
53
3
0
53
3
0
53
3
0
53
3
0
53
3
0
53
3
0
53
3
0
53
3
0
53
3
0
53
3
0
53
0
0
52
0
0
52
0
0
52
0
0
52
0
0
52
0
0
52
0
0
52
0
0
52
0
0
52
0
0
52
0
0
52
0
0
52
0
0
52
0
0
52
0
0
52
0
0
52
0
0
52
0
0
52
0
0
52
0
0
52
0
0
52
0
0
52
0
0
52
0
0
52
0
0
52
0
0
52
0
0
52
0
0
52
0
0
52
0
0
52
0
0
52
0
0
52
0
0
50
0
0
50
0
0
50
0
0
50
0
0
50
0
0
50
0
0
52
0
0
52
0
0
52
0
0
52
0
0
52
0
0
52
0
0
52
0
0
52
0
0
52
0
0
52
0
0
52
0
0
52
0
0
52
0
0
52
0
0
52
0
0
52
0
0
52
0
0
52
0
0
52
0
0
52
0
0
52
0
0
52
0
0
52
0
0
52
0
0
52
0
0
52
0
0
52
0
0
52
0
0
52
0
0
52
0
0
52
0
0
52
0
0
52
0
0
52
0
0
52
0
0
52
0
0
52
0
0
52
0
0
52
0
0
52
0
0
52
0
0
52
0
0
52
0
0
52
0
0
52
0
0
52
0
0
52
0
0
52
0
0
52
0
0
52
0
0
52
0
0
52
0
0
52
0
0
52
0
0
52
0
0
52
0
0
52
0
0
52
0
0
52
0
0
52
0
0
52
0
0
52
0
0
52
0
0
52
0
0
52
0
0
52
0
0
52
0
0
52
0
0
52
0
0
52
0
0
52
0
0
52
0
0
52
0
0
52
0
0
52
0
0
52
0
0
52
0
0
52
0
0
52
0
0
52
0
0
52
0
0
52
0
0
52
0
0
52
0
0
52
0
0
52
0
0
52
0
0
52
0
0
52
0
0
52
0
0
52
0
0
52
0
0
52
0
0
52
0
0
52
0
0
52
0
0
52
0
0
52
0
0
52
0
0
52
0
0
52
0
0
52
0
0
52
0
0
52
0
0
52
0
0
52
0
0
52
0
0
52
0
0
52
0
0
52
0
0
52
0
0
52
0
0
52
0
0
52
0
0
52
0
0
52
0
0
52
0
0
52
0
0
52
0
0
52
0
0
52
0
0
52
0
0
52
0
0
52
0
0
52
0
0
52
0
0
52
0
0
52
0
0
52
0
0
52
0
0
52
0
0
52
0
0
52
0
0
52
0
0
52
0
0
52
0
0
52
0
0
52
0
0
52
0
0
52
0
0
52
0
0
52
0
0
52
0
0
52
0
0
52
0
0
52
0
0
52
0
0
52
0
0
52
0
0
52
0
0
52
0
0
52
0
0
52
0
0
52
0
0
52
0
0
52
0
0
52
0
0
52
0
0
52
0
0
52
0
0
52
0
0
52
0
0
52
0
0
52
0
0
52
0
0
52
0
0
52
0
0
52
0
0
52
0
0
52
0
0
52
0
0
52
0
0
52
0
0
52
0
0
52
0
0
52
0
0
52
0
0
52
0
0
52
0
0
52
0
0
52
0
0
52
0
0
52
0
0
52
0
0
52
0
0
52
0
0
52
0
0
52
0
0
52
0
0
52
0
0
52
0
0
52
0
0
52
0
0
52
0
0
52
0
0
52
0
0
52
0
0
52
0
0
52
0
0
52
0
0
52
0
0
52
0
0
52
0
0
52
0
0
52
0
0
52
0
0
52
0
0
52
0
0
52
0
0
52
0
0
52
0
0
52
0
0
52
0
0
52
0
0
52
0
0
52
0
0
52
0
0
52
0
0
52
0
0
52
0
0
52
0
0
52
0
0
52
0
0
52
0
0
52
0
0
52
0
0
52
0
0
52
0
0
52
0
0
52
0
0
52
0
0
52
0
0
52
0
0
52
0
0
52
0
0
52
0
0
52
0
0
52
0
0
52
0
0
52
0
0
52
0
0
52
0
0
52
0
0
52
0
0
52
0
0
52
0
0
52
0
0
52
0
0
52
0
0
52
0
0
52
0
0
52
0
0
52
0
0
52
0
0
52
0
0
52
0
0
52
0
0
52
0
0
52
0
0
52
0
0
52
0
0
52
0
0
52
0
0
52
0
0
52
0
0
52
0
0
52
0
0
52
0
0
52
0
0
52
0
0
52
0
0
52
0
0
52
0
0
52
0
0
52
0
0
52
0
0
52
0
0
52
0
0
52
0
0
52
0
0
52
0
0
52
0
0
52
0
0
52
0
0
52
0
0
52
0
0
52
0
0
52
0
0
52
0
0
52
0
0
52
0
0
52
0
0
52
0
0
52
0
0
52
0
0
52
0
0
52
0
0
52
0
0
52
0
0
52
0
0
52
0
0
52
0
0
52
0
0
52
0
0
52
0
0
52
0
0
52
0
0
52
0
0
52
0
0
52
0
0
52
0
0
52
0
0
52
0
0
52
0
0
52
0
0
52
0
0
52
0
0
52
0
0
52
0
0
52
0
0
52
0
0
52
0
0
52
0
0
52
0
0
52
0
0
52
0
0
52
0
0
52
0
0
52
0
0
52
0
0
52
0
0
52
0
0
52
0
0
52
0
0
52
0
0
52
0
0
52
0
0
52
0
0
52
0
0
52
0
0
52
0
0
52
0
0
52
0
0
52
0
0
52
0
0
52
0
0
52
0
0
52
0
0
52
0
0
52
0
0
52
0
0
52
0
0
52
0
0
52
0
0
52
0
0
52
0
0
52
0
0
52
0
0
52
0
0
52
0
0
52
0
0
52
0
0
52
0
0
52
0
0
52
0
0
52
0
0
52
0
0
52
0
0
52
0
0
52
0
0
52
0
0
52
0
0
52
0
0
52
0
0
52
0
0
52
0
0
52
0
0
52
0
0
52
0
0
52
0
0
52
0
0
52
0
0
52
0
0
52
0
0
52
0
0
52
0
0
52
0
0
52
0
0
52
0
0
52
0
0
52
0
0
52
0
0
52
0
0
52
0
0
52
0
0
52
0
0
52
0
0
52
0
0
52
0
0
52
0
0
52
0
0
52
0
0
52
0
0
52
0
0
52
0
0
52
0
0
52
0
0
52
0
0
52
0
0
52
0
0
52
0
0
52
0
0
52
0
0
52
0
0
52
0
0
52
0
0
52
0
0
52
0
0
52
0
0
52
0
0
52
0
0
52
0
0
52
0
0
52
0
0
52
0
0
52
0
0
52
0
0
52
0
0
52
0
0
52
0
0
52
0
0
52
0
0
52
0
0
52
0
0
52
0
0
52
0
0
52
0
0
52
0
0
52
0
0
52
0
0
52
0
0
52
0
0
52
0
0
52
0
0
52
0
0
52
0
0
52
0
0
52
0
0
52
0
0
52
0
0
52
0
0
52
0
0
52
0
0
52
0
0
52
0
0
52
0
0
52
0
0
52
0
0
52
0
0
52
0
0
52
0
0
52
0
0
52
0
0
52
0
0
52
0
0
52
0
0
52
0
0
52
0
0
52
0
0
52
0
0
52
0
0
52
0
0
52
0
0
52
0
0
52
0
0
52
0
0
52
0
0
52
0
0
52
0
0
52
0
0
52
0
0
52
0
0
52
0
0
52
0
0
52
0
0
52
0
0
52
0
0
52
0
0
52
0
0
52
0
0
52
0
0
52
0
0
52
0
0
52
0
0
52
0
0
52
0
0
52
0
0
52
0
0
52
0
0
52
0
0
52
0
0
52
0
0
52
0
0
52
0
0
52
0
0
52
0
0
52
0
0
52
0
0
52
0
0
52
0
0
52
0
0
52
0
0
52
0
0
52
0
0
52
0
0
52
0
0
52
0
0
52
0
0
52
0
0
52
0
0
52
0
0
52
0
0
52
0
0
52
0
0
52
0
0
52
0
0
52
0
0
52
0
0
52
0
0
52
0
0
52
0
0
52
0
0
52
0
0
52
0
0
52
0
0
52
0
0
52
0
0
52
0
0
52
0
0
52
0
0
52
0
0
52
0
0
52
0
0
52
0
0
52
0
0
52
0
0
52
0
0
52
0
0
52
0
0
52
0
0
52
0
0
52
0
0
52
0
0
52
0
0
52
0
0
52
0
0
52
0
0
52
0
0
52
0
0
52
0
0
52
0
0
52
0
0
52
0
0
52
0
0
52
0
0
52
0
0
52
0
0
52
0
0
52
0
0
52
0
0
52
0
0
52
0
0
52
0
0
52
0
0
52
0
0
52
0
0
52
0
0
52
0
0
52
0
0
52
0
0
52
0
0
52
0
0
52
0
0
52
0
0
52
0
0
52
0
0
52
0
0
52
0
0
52
0
0
52
0
0
52
0
0
52
0
0
52
0
0
52
0
0
52
0
0
52
0
0
52
0
0
52
0
0
52
0
0
52
0
0
52
0
0
52
0
0
52
0
0
52
0
0
52
0
0
52
0
0
52
0
0
52
0
0
52
0
0
52
0
0
52
0
0
52
0
0
52
0
0
52
0
0
52
0
0
52
0
0
52
0
0
52
0
0
52
0
0
52
0
0
52
0
0
52
0
0
52
0
0
52
0
0
52
0
0
52
0
0
52
0
0
52
0
0
52
0
0
52
0
0
52
0
0
52
0
0
52
0
0
52
0
0
52
0
0
52
0
0
52
0
0
52
0
0
52
0
0
52
0
0
52
0
0
52
0
0
52
0
0
52
0
0
52
0
0
52
0
0
52
0
0
52
0
0
52
0
0
52
0
0
52
0
0
52
0
0
52
0
0
52
0
0
52
0
0
52
0
0
52
0
0
52
0
0
52
0
0
52
0
0
52
0
0
52
0
0
52
0
0
52
0
0
52
0
0
52
0
0
52
0
0
52
0
0
52
0
0
52
0
0
52
0
0
52
0
0
52
0
0
52
0
0
52
0
0
52
0
0
52
0
0
52
0
0
52
0
0
52
0
0
52
0
0
52
0
0
52
0
0
52
0
0
52
0
0
52
0
0
52
0
0
52
0
0
52
0
0
52
0
0
52
0
0
52
0
0
52
0
0
52
0
0
52
0
0
52
0
0
52
0
0
52
0
0
52
0
0
52
0
0
52
0
0
52
0
0
52
0
0
52
0
0
52
0
0
52
0
0
52
0
0
52
0
0
52
0
0
52
0
0
52
0
0
52
0
0
52
0
0
52
0
0
52
0
0
52
0
0
52
0
0
52
0
0
52
0
0
52
0
0
52
0
0
52
0
0
52
0
0
52
0
0
52
0
0
52
0
0
52
0
0
52
0
0
52
0
0
52
0
0
52
0
0
52
0
0
52
0
0
52
0
0
52
0
0
52
0
0
52
0
0
52
0
0
52
0
0
52
0
0
52
0
0
52
0
0
52
0
0
52
0
0
52
0
0
52
0
0
52
0
0
52
0
0
52
0
0
52
0
0
52
0
0
52
0
0
52
0
0
52
0
0
52
0
0
52
0
0
52
0
0
52
0
0
52
0
0
52
0
0
52
0
0
52
0
0
52
0
0
52
0
0
52
0
0
52
0
0
52
0
0
52
0
0
52
0
0
52
0
0
52
0
0
52
0
0
52
0
0
52
0
0
52
0
0
52
0
0
52
0
0
52
0
0
52
0
0
52
0
0
52
0
0
52
0
0
52
0
0
52
0
0
52
0
0
52
0
0
52
0
0
52
0
0
52
0
0
52
0
0
52
0
0
52
0
0
52
0
0
52
0
0
52
0
0
52
0
0
52
0
0
52
0
0
52
0
0
52
0
0
52
0
0
52
0
0
52
0
0
52
0
0
52
0
0
52
0
0
52
0
0
52
0
0
52
0
0
52
0
0
52
0
0
52
0
0
52
0
0
52
0
0
52
0
0
52
0
0
52
0
0
52
0
0
52
0
0
52
0
0
52
0
0
52
0
0
52
0
0
52
0
0
52
0
0
52
0
0
52
0
0
52
0
0
52
0
0
52
0
0
52
0
0
52
0
0
52
0
0
52
0
0
52
0
0
52
0
0
52
0
0
52
0
0
52
0
0
52
0
0
52
0
0
52
0
0
52
0
0
52
0
0
52
0
0
52
0
0
52
0
0
52
0
0
52
0
0
52
0
0
52
0
0
52
0
0
52
0
0
52
0
0
52
0
0
52
0
0
52
0
0
52
0
0
52
0
0
52
0
0
52
0
0
52
0
0
52
0
0
52
0
0
52
0
0
52
0
0
52
0
0
52
0
0
52
0
0
52
0
0
52
0
0
52
0
0
52
0
0
52
0
0
52
0
0
52
0
0
52
0
0
52
0
0
52
0
0
52
0
0
52
0
0
52
0
0
52
0
0
52
0
0
52
0
0
52
0
0
52
0
0
52
0
0
52
0
0
52
0
0
52
0
0
52
0
0
52
0
0
52
0
0
52
0
0
52
0
0
52
0
0
52
0
0
52
0
0
52
0
0
52
0
0
52
0
0
52
0
0
52
0
0
52
0
0
52
0
0
52
0
0
52
0
0
52
0
0
52
0
0
52
0
0
52
0
0
52
0
0
52
0
0
52
0
0
52
0
0
52
0
0
52
0
0
52
0
0
52
0
0
52
0
0
52
0
0
52
0
0
52
0
0
52
0
0
52
0
0
52
0
0
52
0
0
52
0
0
52
0
0
52
0
0
52
0
0
52
0
0
52
0
0
52
0
0
52
0
0
52
0
0
52
0
0
52
0
0
52
0
0
52
0
0
52
0
0
52
0
0
52
0
0
52
0
0
52
0
0
52
0
0
52
0
0
52
0
0
52
0
0
52
0
0
52
0
0
52
0
0
52
0
0
52
0
0
52
0
0
52
0
0
52
0
0
52
0
0
52
0
0
52
0
0
52
0
0
52
0
0
52
0
0
52
0
0
52
0
0
52
0
0
52
0
0
52
0
0
52
0
0
52
0
0
52
0
0
52
0
0
52
0
0
52
0
0
52
0
0
52
0
0
52
0
0
52
0
0
52
0
0
52
0
0
52
0
0
52
0
0
52
0
0
52
0
0
52
0
0
52
0
0
52
0
0
52
0
0
52
0
0
52
0
0
52
0
0
52
0
0
52
0
0
52
0
0
52
0
0
52
0
0
52
0
0
52
0
0
52
0
0
52
0
0
52
0
0
52
0
0
52
0
0
52
0
0
52
0
0
52
0
0
52
0
0
52
0
0
52
0
0
52
0
0
52
0
0
52
0
0
52
0
0
52
0
0
52
0
0
52
0
0
52
0
0
52
0
0
52
0
0
52
0
0
52
0
0
52
0
0
52
0
0
52
0
0
52
0
0
52
0
0
52
0
0
52
0
0
52
0
0
52
0
0
52
0
0
52
0
0
52
0
0
52
0
0
52
0
0
52
0
0
52
0
0
52
0
0
52
0
0
52
0
0
52
0
0
52
0
0
52
0
0
52
0
0
52
0
0
52
0
0
52
0
0
52
0
0
52
0
0
52
0
0
52
0
0
52
0
0
52
0
0
52
0
0
52
0
0
52
0
0
52
0
0
52
0
0
52
0
0
52
0
0
52
0
0
52
0
0
52
0
0
52
0
0
52
0
0
52
0
0
52
0
0
52
0
0
52
0
0
52
0
0
52
0
0
52
0
0
52
0
0
52
0
0
52
0
0
52
0
0
52
0
0
52
0
0
52
0
0
52
0
0
52
0
0
52
0
0
52
0
0
52
0
0
52
0
0
52
0
0
52
0
0
52
0
0
52
0
0
52
0
0
52
0
0
52
0
0
52
0
0
52
0
0
52
0
0
52
0
0
52
0
0
52
0
0
52
0
0
52
0
0
52
0
0
52
0
0
52
0
0
52
0
0
52
0
0
52
0
0
52
0
0
52
0
0
52
0
0
52
0
0
52
0
0
52
0
0
52
0
0
52
0
0
52
0
0
52
0
0
52
0
0
52
0
0
52
0
0
52
0
0
52
0
0
52
0
0
52
0
0
52
0
0
52
0
0
52
0
0
52
0
0
52
0
0
52
0
0
52
0
0
52
0
0
52
0
0
52
0
0
52
0
0
52
0
0
52
0
0
52
0
0
52
0
0
52
0
0
52
0
0
52
0
0
52
0
0
52
0
0
52
0
0
52
0
0
52
0
0
52
0
0
52
0
0
52
0
0
52
0
0
52
0
0
52
0
0
52
0
0
52
0
0
52
0
0
52
0
0
52
0
0
52
0
0
52
0
0
52
0
0
52
0
0
52
0
0
52
0
0
52
0
0
52
0
0
52
0
0
52
0
0
52
0
0
52
0
0
52
0
0
52
0
0
52
0
0
52
0
0
52
0
0
52
0
0
52
0
0
52
0
0
52
0
0
52
0
0
52
0
0
52
0
0
52
0
0
52
0
0
52
0
0
52
0
0
52
0
0
52
0
0
52
0
0
52
0
0
52
0
0
52
0
0
52
0
0
52
0
0
52
0
0
52
0
0
52
0
0
52
0
0
52
0
0
52
0
0
52
0
0
52
0
0
52
0
0
52
0
0
52
0
0
52
0
0
52
0
0
52
0
0
52
0
0
52
0
0
52
0
0
52
0
0
52
0
0
52
0
0
52
0
0
52
0
0
52
0
0
52
0
0
52
0
0
52
0
0
52
0
0
52
0
0
52
0
0
52
0
0
52
0
0
52
0
0
52
0
0
52
0
0
52
0
0
52
0
0
52
0
0
52
0
0
52
0
0
52
0
0
52
0
0
52
0
0
52
0
0
52
0
0
52
0
0
52
0
0
52
0
0
52
0
0
52
0
0
52
0
0
52
0
0
52
0
0
52
0
0
52
0
0
52
0
0
52
0
0
52
0
0
52
0
0
52
0
0
52
0
0
52
0
0
52
0
0
52
0
0
52
0
0
52
0
0
52
0
0
52
0
0
52
0
0
52
0
0
52
0
0
52
0
0
52
0
0
52
0
0
52
0
0
52
0
0
52
0
0
52
0
0
52
0
0
52
0
0
52
0
0
52
0
0
52
0
0
52
0
0
52
0
0
52
0
0
52
0
0
52
0
0
52
0
0
52
0
0
52
0
0
52
0
0
52
0
0
52
0
0
52
0
0
52
0
0
52
0
0
52
0
0
52
0
0
52
0
0
52
0
0
52
0
0
52
0
0
52
0
0
52
0
0
52
0
0
52
0
0
52
0
0
52
0
0
52
0
0
52
0
0
52
0
0
52
0
0
52
0
0
52
0
0
52
0
0
52
0
0
52
0
0
52
0
0
52
0
0
52
0
0
52
0
0
52
0
0
52
0
0
52
0
0
52
0
0
52
0
0
52
0
0
52
0
0
52
0
0
52
0
0
52
0
0
52
0
0
52
0
0
52
0
0
52
0
0
52
0
0
52
0
0
52
0
0
52
0
0
52
0
0
52
0
0
52
0
0
52
0
0
52
0
0
52
0
0
52
0
0
52
0
0
52
0
0
52
0
0
52
0
0
52
0
0
52
0
0
52
0
0
52
0
0
52
0
0
52
0
0
52
0
0
52
0
0
52
0
0
52
0
0
52
0
0
52
0
0
52
0
0
52
0
0
52
0
0
52
0
0
52
0
0
52
0
0
52
0
0
52
0
0
52
0
0
52
0
0
52
0
0
52
0
0
52
0
0
52
0
0
52
0
0
52
0
0
52
0
0
52
0
0
52
0
0
52
0
0
52
0
0
52
0
0
52
0
0
52
0
0
52
0
0
52
0
0
52
0
0
52
0
0
52
0
0
52
0
0
52
0
0
52
0
0
52
0
0
52
0
0
52
0
0
52
0
0
52
0
0
52
0
0
52
0
0
52
0
0
52
0
0
52
0
0
52
0
0
52
0
0
52
0
0
52
0
0
52
0
0
52
0
0
52
0
0
52
0
0
52
0
0
52
0
0
52
0
0
52
0
0
52
0
0
52
0
0
52
0
0
52
0
0
52
0
0
52
0
0
52
0
0
52
0
0
52
0
0
52
0
0
52
0
0
52
0
0
52
0
0
52
0
0
52
0
0
52
0
0
52
0
0
52
0
0
52
0
0
52
0
0
52
0
0
52
0
0
52
0
0
52
0
0
52
0
0
52
0
0
52
0
0
52
0
0
52
0
0
52
0
0
52
0
0
52
0
0
52
0
0
52
0
0
52
0
0
52
0
0
52
0
0
52
0
0
52
0
0
52
0
0
52
0
0
52
0
0
52
0
0
52
0
0
52
0
0
52
0
0
52
0
0
52
0
0
52
0
0
52
0
0
52
0
0
52
0
0
52
0
0
52
0
0
52
0
0
52
0
0
52
0
0
52
0
0
52
0
0
52
0
0
52
0
0
52
0
0
52
0
0
52
0
0
52
0
0
52
0
0
52
0
0
52
0
0
52
0
0
52
0
0
52
0
0
52
0
0
52
0
0
52
0
0
52
0
0
52
0
0
52
0
0
52
0
0
52
0
0
52
0
0
52
0
0
52
0
0
52
0
0
52
0
0
52
0
0
52
0
0
52
0
0
52
0
0
52
0
0
52
0
0
52
0
0
52
0
0
52
0
0
52
0
0
52
0
0
52
0
0
52
0
0
52
0
0
52
0
0
52
0
0
52
0
0
52
0
0
52
0
0
52
0
0
52
0
0
52
0
0
52
0
0
52
0
0
52
0
0
52
0
0
52
0
0
52
0
0
52
0
0
52
0
0
52
0
0
52
0
0
52
0
0
52
0
0
52
0
0
52
0
0
52
0
0
52
0
0
52
0
0
52
0
0
52
0
0
52
0
0
52
0
0
52
0
0
52
0
0
52
0
0
52
0
0
52
0
0
52
0
0
52
0
0
52
0
0
52
0
0
52
0
0
52
0
0
52
0
0
52
0
0
52
0
0
52
0
0
52
0
0
52
0
0
52
0
0
52
0
0
52
0
0
52
0
0
52
0
0
52
0
0
52
0
0
52
0
0
52
0
0
52
0
0
52
0
0
52
0
0
52
0
0
52
0
0
52
0
0
52
0
0
52
0
0
52
0
0
52
0
0
52
0
0
52
0
0
52
0
0
52
0
0
52
0
0
52
0
0
52
0
0
52
0
0
52
0
0
52
0
0
52
0
0
52
0
0
52
0
0
52
0
0
52
0
0
52
0
0
52
0
0
52
0
0
52
0
0
52
0
0
52
0
0
52
0
0
52
0
0
52
0
0
52
0
0
52
0
0
52
0
0
52
0
0
52
0
0
52
0
0
52
0
0
52
0
0
52
0
0
52
0
0
52
0
0
52
0
0
52
0
0
52
0
0
52
0
0
52
0
0
52
0
0
52
0
0
52
0
0
52
0
0
52
0
0
52
0
0
52
0
0
52
0
0
52
0
0
52
0
0
52
0
0
52
0
0
52
0
0
52
0
0
52
0
0
52
0
0
52
0
0
52
0
0
52
0
0
52
0
0
52
0
0
52
0
0
52
0
0
52
0
0
52
0
0
52
0
0
52
0
0
52
0
0
52
0
0
52
0
0
52
0
0
52
0
0
52
0
0
52
0
0
52
0
0
52
0
0
52
0
0
52
0
0
52
0
0
52
0
0
52
0
0
52
0
0
52
0
0
52
0
0
52
0
0
52
0
0
52
0
0
52
0
0
52
0
0
52
0
0
52
0
0
52
0
0
52
0
0
52
0
0
52
0
0
52
0
0
52
0
0
52
0
0
52
0
0
52
0
0
52
0
0
52
0
0
52
0
0
52
0
0
52
0
0
52
0
0
52
0
0
52
0
0
52
0
0
52
0
0
52
0
0
52
0
0
52
0
0
52
0
0
52
0
0
52
0
0
52
0
0
52
0
0
52
0
0
52
0
0
52
0
0
52
0
0
52
0
0
52
0
0
52
0
0
52
0
0
52
0
0
52
0
0
52
0
0
52
0
0
52
0
0
52
0
0
52
0
0
52
0
0
52
0
0
52
0
0
52
0
0
52
0
0
52
0
0
52
0
0
52
0
0
52
0
0
52
0
0
52
0
0
52
0
0
52
0
0
52
0
0
52
0
0
52
0
0
52
0
0
52
0
0
52
0
0
52
0
0
52
0
0
52
0
0
52
0
0
52
0
0
52
0
0
52
0
0
52
0
0
52
0
0
52
0
0
52
0
0
52
0
0
52
0
0
52
0
0
52
0
0
52
0
0
52
0
0
52
0
0
52
0
0
52
0
0
52
0
0
52
0
0
52
0
0
52
0
0
52
0
0
52
0
0
52
0
0
52
0
0
52
0
0
52
0
0
52
0
0
52
0
0
52
0
0
52
0
0
52
0
0
52
0
0
52
0
0
52
0
0
52
0
0
52
0
0
52
0
0
52
0
0
52
0
0
52
0
0
52
0
0
52
0
0
52
0
0
52
0
0
52
0
0
52
0
0
52
0
0
52
0
0
52
0
0
52
0
0
52
0
0
52
0
0
52
0
0
52
0
0
52
0
0
52
0
0
52
0
0
52
0
0
52
0
0
52
0
0
52
0
0
52
0
0
52
0
0
52
0
0
52
0
0
52
0
0
52
0
0
52
0
0
52
0
0
52
0
0
52
0
0
52
0
0
52
0
0
52
0
0
52
0
0
52
0
0
52
0
0
52
0
0
52
0
0
52
0
0
52
0
0
52
0
0
52
0
0
52
0
0
52
0
0
52
0
0
52
0
0
52
0
0
52
0
0
52
0
0
52
0
0
52
0
0
52
0
0
52
0
0
52
0
0
52
0
0
52
0
0
52
0
0
52
0
0
52
0
0
52
0
0
52
0
0
52
0
0
52
0
0
52
0
0
52
0
0
52
0
0
52
0
0
52
0
0
52
0
0
52
0
0
52
0
0
52
0
0
52
0
0
52
0
0
52
0
0
52
0
0
52
0
0
52
0
0
52
0
0
52
0
0
52
0
0
52
0
0
52
0
0
52
0
0
52
0
0
52
0
0
52
0
0
52
0
0
52
0
0
52
0
0
52
0
0
52
0
0
52
0
0
52
0
0
52
0
0
52
0
0
52
0
0
52
0
0
52
0
0
52
0
0
52
0
0
52
0
0
52
0
0
52
0
0
52
0
0
52
0
0
52
0
0
52
0
0
52
0
0
52
0
0
52
0
0
52
0
0
52
0
0
52
0
0
52
0
0
52
0
0
52
0
0
52
0
0
52
0
0
52
0
0
52
0
0
52
0
0
52
0
0
52
0
0
52
0
0
52
0
0
52
0
0
52
0
0
52
0
0
52
0
0
52
0
0
52
0
0
52
0
0
52
0
0
52
0
0
52
0
0
52
0
0
52
0
0
52
0
0
52
0
0
52
0
0
52
0
0
52
0
0
52
0
0
52
0
0
52
0
0
52
0
0
52
0
0
52
0
0
52
0
0
52
0
0
52
0
0
52
0
0
52
0
0
52
0
0
52
0
0
52
0
0
52
0
0
52
0
0
52
0
0
52
0
0
52
0
0
52
0
0
52
0
0
52
0
0
52
0
0
52
0
0
52
0
0
52
0
0
52
0
0
52
0
0
52
0
0
52
0
0
52
0
0
52
0
0
52
0
0
52
0
0
52
0
0
52
0
0
52
0
0
52
0
0
52
0
0
52
0
0
52
0
0
52
0
0
52
0
0
52
0
0
52
0
0
52
0
0
52
0
0
52
0
0
52
0
0
52
0
0
52
0
0
52
0
0
52
0
0
52
0
0
52
0
0
52
0
0
52
0
0
52
0
0
52
0
0
52
0
0
52
0
0
52
0
0
52
0
0
52
0
0
52
0
0
52
0
0
52
0
0
52
0
0
52
0
0
52
0
0
52
0
0
52
0
0
52
0
0
52
0
0
52
0
0
52
0
0
52
0
0
52
0
0
52
0
0
52
0
0
52
0
0
52
0
0
52
0
0
52
0
0
52
0
0
52
0
0
52
0
0
52
0
0
52
0
0
52
0
0
52
0
0
52
0
0
52
0
0
52
0
0
52
0
0
52
0
0
52
0
0
52
0
0
52
0
0
52
0
0
52
0
0
52
0
0
52
0
0
52
0
0
52
0
0
52
0
0
52
0
0
52
0
0
52
0
0
52
0
0
52
0
0
52
0
0
52
0
0
52
0
0
52
0
0
52
0
0
52
0
0
52
0
0
52
0
0
52
0
0
52
0
0
52
0
0
52
0
0
52
0
0
52
0
0
52
0
0
52
0
0
52
0
0
52
0
0
52
0
0
52
0
0
52
0
0
52
0
0
52
0
0
52
0
0
52
0
0
52
0
0
52
0
0
52
0
0
52
0
0
52
0
0
52
0
0
52
0
0
52
0
0
52
0
0
52
0
0
52
0
0
52
0
0
52
0
0
52
0
0
52
0
0
52
0
0
52
0
0
52
0
0
52
0
0
52
0
0
52
0
0
52
0
0
52
0
0
52
0
0
52
0
0
52
0
0
52
0
0
52
0
0
52
0
0
52
0
0
52
0
0
52
0
0
52
0
0
52
0
0
52
0
0
52
0
0
52
0
0
52
0
0
52
0
0
52
0
0
52
0
0
52
0
0
52
0
0
52
0
0
52
0
0
52
0
0
52
0
0
52
0
0
52
0
0
52
0
0
52
0
0
52
0
0
52
0
0
52
0
0
52
0
0
52
0
0
52
0
0
52
0
0
52
0
0
52
0
0
52
0
0
52
0
0
52
0
0
52
0
0
52
0
0
52
0
0
52
0
0
52
0
0
52
0
0
52
0
0
52
0
0
52
0
0
52
0
0
52
0
0
52
0
0
52
0
0
52
0
0
52
0
0
52
0
0
52
0
0
52
0
0
52
0
0
52
0
0
52
0
0
52
0
0
52
0
0
52
0
0
52
0
0
52
0
0
52
4
2
52
4
2
52
3
1
51
2
0
50
1
0
49
2
0
50
0
0
52
0
0
52
0
0
52
0
0
52
0
0
52
0
0
52
0
0
52
0
0
52
0
0
52
0
0
52
0
0
52
0
0
52
0
0
52
0
0
52
0
0
52
0
0
52
0
0
52
0
0
52
0
0
52
0
0
52
0
0
52
0
0
52
0
0
52
0
0
52
0
0
52
0
0
52
0
0
52
0
0
52
0
0
52
0
0
52
0
0
52
0
0
52
0
0
52
0
0
52
0
0
52
0
0
52
0
0
52
0
0
52
0
0
52
0
0
52
0
0
52
0
0
52
0
0
52
0
0
52
0
0
52
0
0
52
0
0
52
0
0
52
0
0
52
0
0
52
0
0
52
0
0
52
0
0
52
0
0
52
0
0
52
0
0
52
0
0
52
0
0
52
0
0
52
2
0
50
2
0
50
2
0
50
2
0
50
1
0
49
3
1
51
0
0
52
0
0
52
0
0
52
0
0
52
0
0
52
0
0
52
0
0
52
0
0
52
0
0
52
0
0
52
0
0
52
0
0
52
0
0
52
0
0
52
0
0
52
0
0
52
0
0
52
0
0
52
0
0
52
0
0
52
0
0
52
0
0
52
0
0
52
0
0
52
0
0
52
0
0
52
0
0
52
0
0
52
0
0
52
0
0
52
0
0
52
0
0
52
0
0
52
0
0
52
0
0
52
0
0
52
0
0
52
0
0
52
0
0
52
0
0
52
0
0
52
0
0
52
0
0
52
0
0
52
0
0
52
0
0
52
0
0
52
0
0
52
0
0
52
0
0
52
0
0
52
0
0
52
0
0
52
0
0
52
0
0
52
0
0
52
0
0
52
0
0
52
0
0
52
0
0
50
1
0
51
2
0
50
2
0
50
2
0
50
3
1
51
0
0
52
0
0
52
0
0
52
0
0
52
0
0
52
0
0
52
0
0
52
0
0
52
0
0
52
0
0
52
0
0
52
0
0
52
0
0
52
0
0
52
0
0
52
0
0
52
0
0
52
0
0
52
0
0
52
0
0
52
0
0
52
0
0
52
0
0
52
0
0
52
0
0
52
0
0
52
0
0
52
0
0
52
0
0
52
0
0
52
0
0
52
0
0
52
0
0
52
0
0
52
0
0
52
0
0
52
0
0
52
0
0
52
0
0
52
0
0
52
0
0
52
0
0
52
0
0
52
0
0
52
0
0
52
0
0
52
0
0
52
0
0
52
0
0
52
0
0
52
0
0
52
0
0
52
0
0
52
0
0
52
0
0
52
0
0
52
0
0
52
0
0
52
0
0
52
1
0
51
2
0
52
2
0
50
2
0
50
2
0
50
2
0
50
0
0
52
0
0
52
0
0
52
0
0
52
0
0
52
0
0
52
0
0
52
0
0
52
0
0
52
0
0
52
0
0
52
0
0
52
0
0
52
0
0
52
0
0
52
0
0
52
0
0
52
0
0
52
0
0
52
0
0
52
0
0
52
0
0
52
0
0
52
0
0
52
0
0
52
0
0
52
0
0
52
0
0
52
0
0
52
0
0
52
0
0
52
0
0
52
0
0
52
0
0
52
0
0
52
0
0
52
0
0
52
0
0
52
0
0
52
0
0
52
0
0
52
0
0
52
0
0
52
0
0
52
0
0
52
0
0
52
0
0
52
0
0
52
0
0
52
0
0
52
0
0
52
0
0
52
0
0
52
0
0
52
0
0
52
0
0
52
0
0
52
0
0
52
0
0
52
2
0
52
3
0
53
3
0
53
3
0
53
1
0
49
1
0
49
0
0
52
0
0
52
0
0
52
0
0
52
0
0
52
0
0
52
0
0
52
0
0
52
0
0
52
0
0
52
0
0
52
0
0
52
0
0
52
0
0
52
0
0
52
0
0
52
0
0
52
0
0
52
0
0
52
0
0
52
0
0
52
0
0
52
0
0
52
0
0
52
0
0
52
0
0
52
0
0
52
0
0
52
0
0
52
0
0
52
0
0
52
0
0
52
0
0
52
0
0
52
0
0
52
0
0
52
0
0
52
0
0
52
0
0
52
0
0
52
0
0
52
0
0
52
0
0
52
0
0
52
0
0
52
0
0
52
0
0
52
0
0
52
0
0
52
0
0
52
0
0
52
0
0
52
0
0
52
0
0
52
0
0
52
0
0
52
0
0
52
0
0
52
0
0
52
3
0
53
4
1
54
4
1
54
3
0
53
1
0
49
0
0
48
0
0
52
0
0
52
0
0
52
0
0
52
0
0
52
0
0
52
0
0
52
0
0
52
0
0
52
0
0
52
0
0
52
0
0
52
0
0
52
0
0
52
0
0
52
0
0
52
0
0
52
0
0
52
0
0
52
0
0
52
0
0
52
0
0
52
0
0
52
0
0
52
0
0
52
0
0
52
0
0
52
0
0
52
0
0
52
0
0
52
0
0
52
0
0
52
0
0
52
0
0
52
0
0
52
0
0
52
0
0
52
0
0
52
0
0
52
0
0
52
0
0
52
0
0
52
0
0
52
0
0
52
0
0
52
0
0
52
0
0
52
0
0
52
0
0
52
0
0
52
0
0
52
0
0
52
0
0
52
0
0
52
0
0
52
0
0
52
0
0
52
0
0
52
0
0
52
1
0
51
2
0
52
3
0
53
3
0
53
2
0
52
1
0
51
0
0
52
0
0
52
0
0
52
0
0
52
0
0
52
0
0
52
0
0
52
0
0
52
0
0
52
0
0
52
0
0
52
0
0
52
0
0
52
0
0
52
0
0
52
0
0
52
0
0
52
0
0
52
0
0
52
0
0
52
0
0
52
0
0
52
0
0
52
0
0
52
0
0
52
0
0
52
0
0
52
0
0
52
0
0
52
0
0
52
0
0
52
0
0
52
0
0
52
0
0
52
0
0
52
0
0
52
0
0
52
0
0
52
0
0
52
0
0
52
0
0
52
0
0
52
0
0
52
0
0
52
0
0
52
0
0
52
0
0
52
0
0
52
0
0
52
0
0
52
0
0
52
0
0
52
0
0
52
0
0
52
0
0
52
0
0
52
0
0
52
0
0
52
0
0
52
0
0
49
1
0
51
2
0
52
3
0
53
2
0
52
1
0
51
0
0
52
0
0
52
0
0
52
0
0
52
0
0
52
0
0
52
0
0
52
0
0
52
0
0
52
0
0
52
0
0
52
0
0
52
0
0
52
0
0
52
0
0
52
0
0
52
0
0
52
0
0
52
0
0
52
0
0
52
0
0
52
0
0
52
0
0
52
0
0
52
0
0
52
0
0
52
0
0
52
0
0
52
0
0
52
0
0
52
0
0
52
0
0
52
0
0
52
0
0
52
0
0
52
0
0
52
0
0
52
0
0
52
0
0
52
0
0
52
0
0
52
0
0
52
0
0
52
0
0
52
0
0
52
0
0
52
0
0
52
0
0
52
0
0
52
0
0
52
0
0
52
0
0
52
0
0
52
0
0
52
0
0
52
0
0
52
0
0
52
0
0
52
0
0
52
2
0
54
2
0
54
2
0
54
2
0
54
2
0
52
2
0
52
0
0
52
0
0
52
0
0
52
0
0
52
0
0
52
0
0
52
0
0
52
0
0
52
0
0
52
0
0
52
0
0
52
0
0
52
0
0
52
0
0
52
0
0
52
0
0
52
0
0
52
0
0
52
0
0
52
0
0
52
0
0
52
0
0
52
0
0
52
0
0
52
0
0
52
0
0
52
0
0
52
0
0
52
0
0
52
0
0
52
0
0
52
0
0
52
0
0
52
0
0
52
0
0
52
0
0
52
0
0
52
0
0
52
0
0
52
0
0
52
0
0
52
0
0
52
0
0
52
0
0
52
0
0
52
0
0
52
0
0
52
0
0
52
0
0
52
0
0
52
0
0
52
0
0
52
0
0
52
0
0
52
0
0
52
0
0
52
0
0
52
0
0
52
0
0
52
2
0
54
2
0
54
2
0
54
2
0
54
2
0
52
2
0
52
0
0
52
0
0
52
0
0
52
0
0
52
0
0
52
0
0
52
0
0
52
0
0
52
0
0
52
0
0
52
0
0
52
0
0
52
0
0
52
0
0
52
0
0
52
0
0
52
0
0
52
0
0
52
0
0
52
0
0
52
0
0
52
0
0
52
0
0
52
0
0
52
0
0
52
0
0
52
0
0
52
0
0
52
0
0
52
0
0
52
0
0
52
0
0
52
0
0
52
0
0
52
0
0
52
0
0
52
0
0
52
0
0
52
0
0
52
0
0
52
0
0
52
0
0
52
0
0
52
0
0
52
0
0
52
0
0
52
0
0
52
0
0
52
0
0
52
0
0
52
0
0
52
0
0
52
0
0
52
0
0
52
0
0
52
0
0
52
0
0
52
0
0
52
0
0
52
2
0
54
2
0
54
2
0
54
2
0
54
2
0
54
2
0
54
0
0
52
0
0
52
0
0
52
0
0
52
0
0
52
0
0
52
0
0
52
0
0
52
0
0
52
0
0
52
0
0
52
0
0
52
0
0
52
0
0
52
0
0
52
0
0
52
0
0
52
0
0
52
0
0
52
0
0
52
0
0
52
0
0
52
0
0
52
0
0
52
0
0
52
0
0
52
0
0
52
0
0
52
0
0
52
0
0
52
0
0
52
0
0
52
0
0
52
0
0
52
0
0
52
0
0
52
0
0
52
0
0
52
0
0
52
0
0
52
0
0
52
0
0
52
0
0
52
0
0
52
0
0
52
0
0
52
0
0
52
0
0
52
0
0
52
0
0
52
0
0
52
0
0
52
0
0
52
0
0
52
0
0
52
0
0
52
0
0
52
0
0
52
0
0
52
2
0
54
2
0
54
2
0
54
2
0
54
2
0
54
2
0
54
0
0
52
0
0
52
0
0
52
0
0
52
0
0
52
0
0
52
0
0
52
0
0
52
0
0
52
0
0
52
0
0
52
0
0
52
0
0
52
0
0
52
0
0
52
0
0
52
0
0
52
0
0
52
0
0
52
0
0
52
0
0
52
0
0
52
0
0
52
0
0
52
0
0
52
0
0
52
0
0
52
0
0
52
0
0
52
0
0
52
0
0
52
0
0
52
0
0
52
0
0
52
0
0
52
0
0
52
0
0
52
0
0
52
0
0
52
0
0
52
0
0
52
0
0
52
0
0
52
0
0
52
0
0
52
0
0
52
0
0
52
0
0
52
0
0
52
0
0
52
0
0
52
0
0
52
0
0
52
0
0
52
0
0
52
0
0
52
0
0
52
0
0
52
0
0
52
2
0
54
2
0
56
2
0
54
2
0
54
2
0
54
2
0
54
0
0
52
0
0
52
0
0
52
0
0
52
0
0
52
0
0
52
0
0
52
0
0
52
0
0
52
0
0
52
0
0
52
0
0
52
0
0
52
0
0
52
0
0
52
0
0
52
0
0
52
0
0
52
0
0
52
0
0
52
0
0
52
0
0
52
0
0
52
0
0
52
0
0
52
0
0
52
0
0
52
0
0
52
0
0
52
0
0
52
0
0
52
0
0
52
0
0
52
0
0
52
0
0
52
0
0
52
0
0
52
0
0
52
0
0
52
0
0
52
0
0
52
0
0
52
0
0
52
0
0
52
0
0
52
0
0
52
0
0
52
0
0
52
0
0
52
0
0
52
0
0
52
0
0
52
0
0
52
0
0
52
0
0
52
0
0
52
0
0
52
0
0
52
0
0
52
2
0
56
2
0
56
2
0
54
2
0
54
2
0
54
2
0
54
0
0
52
0
0
52
0
0
52
0
0
52
0
0
52
0
0
52
0
0
52
0
0
52
0
0
52
0
0
52
0
0
52
0
0
52
0
0
52
0
0
52
0
0
52
0
0
52
0
0
52
0
0
52
0
0
52
0
0
52
0
0
52
0
0
52
0
0
52
0
0
52
0
0
52
0
0
52
0
0
52
0
0
52
0
0
52
0
0
52
0
0
52
0
0
52
0
0
52
0
0
52
0
0
52
0
0
52
0
0
52
0
0
52
0
0
52
0
0
52
0
0
52
0
0
52
0
0
52
0
0
52
0
0
52
0
0
52
0
0
52
0
0
52
0
0
52
0
0
52
0
0
52
0
0
52
0
0
52
0
0
52
0
0
52
0
0
52
0
0
52
0
0
52
0
0
52
2
0
56
2
0
56
2
0
56
2
0
56
2
0
54
2
0
54
0
0
52
0
0
52
0
0
50
0
0
50
0
1
49
0
1
49
0
1
49
0
0
50
0
1
52
0
1
52
0
1
52
0
0
52
0
0
52
0
0
52
0
0
52
0
0
52
0
0
52
0
0
52
0
0
52
0
0
52
0
0
52
0
0
52
0
0
52
0
0
52
0
0
52
0
0
52
0
0
52
0
0
52
0
0
52
0
0
52
0
0
52
0
0
52
0
0
52
0
0
52
0
0
52
0
0
52
0
0
52
0
0
52
0
0
52
0
0
52
0
0
52
0
0
52
0
0
52
0
0
52
0
0
52
0
0
52
0
0
52
0
0
52
0
0
52
0
0
52
0
0
52
0
0
52
0
0
52
0
0
52
0
0
52
0
0
52
0
0
52
0
0
52
0
0
52
2
0
54
2
0
54
2
0
56
2
0
54
2
0
54
2
0
54
3
0
55
1
1
51
1
2
50
0
3
46
0
3
44
0
4
42
0
4
44
0
3
48
0
3
51
0
2
55
0
2
55
0
1
52
0
0
52
0
0
52
0
0
52
0
0
52
0
0
52
0
0
52
0
0
52
0
0
52
0
0
52
0
0
52
0
0
52
0
0
52
0
0
52
0
0
52
0
0
52
0
0
52
0
0
52
0
0
52
0
0
52
0
0
52
0
0
52
0
0
52
0
0
52
0
0
52
0
0
52
0
0
52
0
0
52
0
0
52
0
0
52
0
0
52
0
0
52
0
0
52
0
0
52
0
0
52
0
0
52
0
0
52
0
0
52
0
0
52
0
0
52
0
0
52
0
0
52
0
0
52
0
0
52
0
0
52
0
0
52
0
0
52
0
0
52
0
0
52
0
0
52
0
0
54
0
0
52
0
0
52
0
0
52
