# Blender v2.92.0 OBJ File: ''
# www.blender.org
mtllib boat.mtl
o Circle
v 2.480132 -0.297246 -4.304116
v 2.228493 -0.304614 -4.466432
v 1.484700 -0.304614 -3.405702
v 0.411689 -0.304614 -1.792942
v -0.833680 -0.304614 0.122234
v -2.021323 -0.304614 2.073732
v -2.902827 -0.304614 3.806994
v -3.068810 -0.281385 4.305992
v -3.096670 -0.261960 4.571875
v -2.859500 -0.281385 4.437695
v -2.501804 -0.304614 4.059329
v -1.320699 -0.304614 2.514584
v -0.075329 -0.304614 0.599408
v 1.112315 -0.304614 -1.352091
v 2.101912 -0.304614 -3.017338
v 2.736311 -0.304614 -4.146903
v 1.883593 0.739975 -3.325399
v 0.619687 0.732138 -4.124339
v 0.020899 0.731562 -3.572384
v -1.188362 0.731369 -2.132983
v -2.483236 0.731101 -0.402504
v -3.418348 0.730696 1.389874
v -3.935011 0.730354 3.083101
v -3.955995 0.730206 4.517047
v -3.820551 0.795402 5.751777
v -2.654972 0.730207 5.336790
v -1.370345 0.730354 4.696858
v -0.067450 0.730696 3.498348
v 1.143750 0.731101 1.879691
v 2.143464 0.731369 -0.036511
v 2.917814 0.731562 -1.749570
v 3.156292 0.732138 -2.528245
v 1.106327 0.731855 -5.173722
v 2.478540 0.739223 -4.306313
v 0.120684 0.731855 -4.265172
v -1.136736 0.731855 -2.768446
v -2.509726 0.731855 -0.933572
v -3.569749 0.731855 1.098228
v -4.155425 0.731855 3.017632
v -4.177592 0.731855 4.532428
v -4.013988 0.793402 6.024449
v -2.604200 0.731855 5.522448
v -1.248177 0.731855 4.846951
v 0.228756 0.731855 3.488347
v 1.601746 0.731855 1.653474
v 2.661769 0.731855 -0.378328
v 3.466957 0.731855 -2.159610
v 3.859504 0.731855 -3.441353
v 1.033490 0.047015 -3.244311
v 1.605781 0.050949 -2.881129
v 0.598999 0.046726 -2.734966
v -0.335474 0.046629 -1.468535
v -1.369319 0.046494 0.026094
v -2.211206 0.046291 1.502888
v -2.799772 0.046119 2.833603
v -3.063363 0.046045 3.887412
v -3.203787 0.078774 4.767863
v -2.473800 0.046045 4.259311
v -1.637201 0.046119 3.565124
v -0.692234 0.046291 2.458666
v 0.274805 0.046494 1.060619
v 1.174853 0.046629 -0.518199
v 1.912179 0.046726 -1.908679
v 2.183341 0.047015 -2.520798
vt 0.000000 0.000000
vt 0.000000 0.000000
vt 0.000000 0.000000
vt 0.000000 0.000000
vt 0.000000 0.000000
vt 0.000000 0.000000
vt 0.000000 0.000000
vt 0.000000 0.000000
vt 0.000000 0.000000
vt 0.000000 0.000000
vt 0.000000 0.000000
vt 0.000000 0.000000
vt 0.000000 0.000000
vt 0.000000 0.000000
vt 0.000000 0.000000
vt 0.000000 0.000000
vt 0.000000 0.000000
vt 0.000000 0.000000
vt 0.000000 0.000000
vt 0.000000 0.000000
vt 0.000000 0.000000
vt 0.000000 0.000000
vt 0.000000 0.000000
vt 0.000000 0.000000
vt 0.000000 0.000000
vt 0.000000 0.000000
vt 0.000000 0.000000
vt 0.000000 0.000000
vt 0.000000 0.000000
vt 0.000000 0.000000
vt 0.000000 0.000000
vt 0.000000 0.000000
vt 0.000000 0.000000
vt 0.000000 0.000000
vt 0.000000 0.000000
vt 0.000000 0.000000
vt 0.000000 0.000000
vt 0.000000 0.000000
vt 0.000000 0.000000
vt 0.000000 0.000000
vt 0.000000 0.000000
vt 0.000000 0.000000
vt 0.000000 0.000000
vt 0.000000 0.000000
vt 0.000000 0.000000
vt 0.000000 0.000000
vt 0.000000 0.000000
vt 0.000000 0.000000
vt 0.000000 0.000000
vt 0.000000 0.000000
vt 0.000000 0.000000
vt 0.000000 0.000000
vt 0.000000 0.000000
vt 0.000000 0.000000
vt 0.000000 0.000000
vt 0.000000 0.000000
vt 0.000000 0.000000
vt 0.000000 0.000000
vt 0.000000 0.000000
vt 0.000000 0.000000
vt 0.000000 0.000000
vt 0.000000 0.000000
vt 0.000000 0.000000
vt 0.000000 0.000000
vn -0.0030 1.0000 0.0048
vn 0.2307 -0.8558 0.4630
vn -0.3427 0.8624 -0.3726
vn 0.3721 0.8854 0.2785
vn -0.3722 0.8854 -0.2785
vn 0.4210 0.8701 0.2562
vn -0.4210 0.8701 -0.2562
vn 0.5126 0.8181 0.2607
vn -0.4650 0.8411 -0.2763
vn 0.6831 0.7040 0.1944
vn -0.5373 0.7876 -0.3017
vn 0.7781 0.6271 0.0357
vn -0.5343 -0.0017 0.8453
vn -0.5230 0.0010 0.8523
vn -0.1971 0.7392 -0.6441
vn 0.3757 0.8323 0.4075
vn -0.2827 0.7733 -0.5676
vn 0.3800 0.8682 0.3192
vn 0.0010 -1.0000 -0.0016
vn -0.4098 -0.8447 -0.3444
vn 0.3381 -0.8665 0.3673
vn -0.4099 -0.8590 -0.3068
vn 0.4003 -0.8661 0.2993
vn -0.4575 -0.8501 -0.2609
vn 0.4652 -0.8446 0.2651
vn -0.5392 -0.8077 -0.2386
vn 0.5120 -0.8149 0.2715
vn -0.6716 -0.7216 -0.1680
vn 0.5591 -0.7913 0.2473
vn -0.6717 -0.7323 0.1123
vn 0.4284 -0.6042 -0.6718
vn 0.4184 -0.6053 -0.6772
vn 0.3445 -0.7652 0.5438
vn -0.3805 -0.8271 -0.4137
vn 0.2995 0.8276 -0.4747
vn -0.0202 0.9997 -0.0141
vn 0.0000 1.0000 -0.0000
vn 0.0242 0.9990 -0.0385
vn 0.0430 0.9967 -0.0683
vn 0.0214 0.9997 0.0120
vn 0.4420 -0.7218 0.5326
vn -0.4569 0.8181 -0.3493
vn 0.4132 0.8701 0.2687
vn -0.4132 0.8701 -0.2687
vn 0.4121 0.8854 0.2150
vn -0.4121 0.8854 -0.2150
vn 0.4842 0.8624 0.1477
vn -0.4523 0.8681 -0.2044
vn 0.6340 0.7733 0.0093
vn -0.5300 0.8323 -0.1623
vn 0.6594 0.7447 -0.1030
vn -0.5421 0.0009 0.8403
vn -0.5308 -0.0017 0.8475
vn -0.3330 0.6503 -0.6828
vn 0.5045 0.7876 0.3538
vn -0.5071 0.6861 -0.5216
vn 0.4503 0.8411 0.2996
vn 0.0047 -1.0000 0.0034
vn -0.0051 -1.0000 -0.0027
vn -0.0051 -1.0000 -0.0028
vn 0.0000 -1.0000 -0.0001
vn 0.0001 -1.0000 -0.0001
vn -0.0213 -0.9992 0.0337
vn -0.4665 -0.8148 -0.3443
vn 0.4483 -0.8078 0.3827
vn -0.4405 -0.8444 -0.3048
vn 0.4331 -0.8502 0.2994
vn -0.4432 -0.8660 -0.2314
vn 0.4538 -0.8591 0.2366
vn -0.4776 -0.8664 -0.1459
vn 0.4876 -0.8448 0.2203
vn -0.5174 -0.8557 -0.0077
vn 0.5374 -0.8272 0.1640
vn -0.6388 -0.7659 -0.0734
vn 0.4295 -0.6053 -0.6702
vn 0.4203 -0.6042 -0.6770
vn 0.1917 -0.7322 0.6535
vn -0.4651 -0.7911 -0.3972
vn 0.2993 0.8275 -0.4751
vn 0.0041 -1.0000 0.0033
vn 0.0004 -1.0000 0.0005
vn -0.0006 -1.0000 -0.0005
vn -0.0011 -1.0000 -0.0009
vn -0.0025 -1.0000 -0.0013
vn -0.0048 -1.0000 -0.0015
vn -0.0068 -1.0000 -0.0001
vn -0.0045 -0.9991 0.0417
vn -0.0779 -0.9950 -0.0626
vn 0.0040 -1.0000 0.0078
vn 0.0054 -1.0000 0.0056
vn 0.0040 -1.0000 0.0027
vn 0.0021 -1.0000 0.0010
vn 0.0012 -1.0000 0.0004
vn -0.0000 -1.0000 -0.0007
vn -0.0037 -1.0000 -0.0026
vn 0.0357 0.9978 -0.0566
vn 0.0040 -1.0000 0.0021
vn 0.0007 -1.0000 -0.0003
vn -0.0008 -1.0000 -0.0008
vn -0.0016 -1.0000 -0.0013
vn -0.0036 -1.0000 -0.0021
vn -0.0062 -1.0000 -0.0021
vn -0.0075 -1.0000 -0.0002
vn 0.0731 -0.9963 0.0446
vn -0.0369 -0.9991 0.0190
vn 0.0035 -1.0000 0.0071
vn 0.0041 -1.0000 0.0044
vn 0.0026 -1.0000 0.0020
vn 0.0014 -1.0000 0.0007
vn 0.0008 -1.0000 0.0004
vn -0.0007 -1.0000 -0.0002
vn -0.0048 -1.0000 -0.0022
usemtl Material.003
s off
f 1/1/1 3/2/1 15/3/1
f 26/4/2 59/5/2 27/6/2
f 12/7/3 43/8/3 44/9/3
f 5/10/4 36/11/4 37/12/4
f 13/13/5 44/9/5 45/14/5
f 5/10/6 38/15/6 6/16/6
f 13/13/7 46/17/7 14/18/7
f 6/16/8 39/19/8 7/20/8
f 14/18/9 47/21/9 15/3/9
f 7/20/10 40/22/10 8/23/10
f 15/3/11 48/24/11 16/25/11
f 8/23/12 41/26/12 9/27/12
f 2/28/13 34/29/13 33/30/13
f 16/25/14 34/29/14 1/1/14
f 10/31/15 41/26/15 42/32/15
f 3/2/16 33/30/16 35/33/16
f 11/34/17 42/32/17 43/8/17
f 4/35/18 35/33/18 36/11/18
f 52/36/19 50/37/19 62/38/19
f 19/39/20 52/36/20 20/40/20
f 27/6/21 60/41/21 28/42/21
f 20/40/22 53/43/22 21/44/22
f 28/42/23 61/45/23 29/46/23
f 22/47/24 53/43/24 54/48/24
f 30/49/25 61/45/25 62/38/25
f 23/50/26 54/48/26 55/51/26
f 31/52/27 62/38/27 63/53/27
f 24/54/28 55/51/28 56/55/28
f 32/56/29 63/53/29 64/57/29
f 24/54/30 57/58/30 25/59/30
f 17/60/31 49/61/31 18/62/31
f 17/60/32 64/57/32 50/37/32
f 26/4/33 57/58/33 58/63/33
f 18/62/34 51/64/34 19/39/34
f 24/54/35 58/63/35 56/55/35
f 1/1/36 2/28/36 3/2/36
f 3/2/37 4/35/37 14/18/37
f 4/35/37 5/10/37 13/13/37
f 5/10/37 6/16/37 12/7/37
f 6/16/37 7/20/37 11/34/37
f 7/20/38 8/23/38 11/34/38
f 8/23/39 9/27/39 10/31/39
f 11/34/38 8/23/38 10/31/38
f 11/34/37 12/7/37 6/16/37
f 12/7/37 13/13/37 5/10/37
f 13/13/37 14/18/37 4/35/37
f 14/18/37 15/3/37 3/2/37
f 15/3/40 16/25/40 1/1/40
f 26/4/41 58/63/41 59/5/41
f 12/7/42 11/34/42 43/8/42
f 5/10/43 4/35/43 36/11/43
f 13/13/44 12/7/44 44/9/44
f 5/10/45 37/12/45 38/15/45
f 13/13/46 45/14/46 46/17/46
f 6/16/47 38/15/47 39/19/47
f 14/18/48 46/17/48 47/21/48
f 7/20/49 39/19/49 40/22/49
f 15/3/50 47/21/50 48/24/50
f 8/23/51 40/22/51 41/26/51
f 2/28/52 1/1/52 34/29/52
f 16/25/53 48/24/53 34/29/53
f 10/31/54 9/27/54 41/26/54
f 3/2/55 2/28/55 33/30/55
f 11/34/56 10/31/56 42/32/56
f 4/35/57 3/2/57 35/33/57
f 51/64/58 49/61/58 50/37/58
f 50/37/59 64/57/59 63/53/59
f 63/53/60 62/38/60 50/37/60
f 62/38/61 61/45/61 52/36/61
f 50/37/58 52/36/58 51/64/58
f 61/45/62 60/41/62 53/43/62
f 60/41/62 59/5/62 54/48/62
f 53/43/62 60/41/62 54/48/62
f 59/5/61 58/63/61 56/55/61
f 58/63/63 57/58/63 56/55/63
f 59/5/61 56/55/61 55/51/61
f 55/51/62 54/48/62 59/5/62
f 53/43/61 52/36/61 61/45/61
f 19/39/64 51/64/64 52/36/64
f 27/6/65 59/5/65 60/41/65
f 20/40/66 52/36/66 53/43/66
f 28/42/67 60/41/67 61/45/67
f 22/47/68 21/44/68 53/43/68
f 30/49/69 29/46/69 61/45/69
f 23/50/70 22/47/70 54/48/70
f 31/52/71 30/49/71 62/38/71
f 24/54/72 23/50/72 55/51/72
f 32/56/73 31/52/73 63/53/73
f 24/54/74 56/55/74 57/58/74
f 17/60/75 50/37/75 49/61/75
f 17/60/76 32/56/76 64/57/76
f 26/4/77 25/59/77 57/58/77
f 18/62/78 49/61/78 51/64/78
f 24/54/79 26/4/79 58/63/79
usemtl Material.004
f 18/62/80 34/29/80 17/60/80
f 18/62/81 35/33/81 33/30/81
f 19/39/82 36/11/82 35/33/82
f 20/40/83 37/12/83 36/11/83
f 21/44/84 38/15/84 37/12/84
f 22/47/85 39/19/85 38/15/85
f 23/50/86 40/22/86 39/19/86
f 24/54/87 41/26/87 40/22/87
f 26/4/88 41/26/88 25/59/88
f 27/6/89 42/32/89 26/4/89
f 28/42/90 43/8/90 27/6/90
f 29/46/91 44/9/91 28/42/91
f 30/49/92 45/14/92 29/46/92
f 31/52/93 46/17/93 30/49/93
f 32/56/94 47/21/94 31/52/94
f 32/56/95 34/29/95 48/24/95
f 25/59/96 26/4/96 24/54/96
f 18/62/97 33/30/97 34/29/97
f 18/62/98 19/39/98 35/33/98
f 19/39/99 20/40/99 36/11/99
f 20/40/100 21/44/100 37/12/100
f 21/44/101 22/47/101 38/15/101
f 22/47/102 23/50/102 39/19/102
f 23/50/103 24/54/103 40/22/103
f 24/54/104 25/59/104 41/26/104
f 26/4/105 42/32/105 41/26/105
f 27/6/106 43/8/106 42/32/106
f 28/42/107 44/9/107 43/8/107
f 29/46/108 45/14/108 44/9/108
f 30/49/109 46/17/109 45/14/109
f 31/52/110 47/21/110 46/17/110
f 32/56/111 48/24/111 47/21/111
f 32/56/112 17/60/112 34/29/112
o Cube_Cube.001
v -2.080609 0.388701 -0.256521
v -2.080609 0.536275 -0.256521
v -1.749937 0.388701 -0.782043
v -1.749937 0.536275 -0.782043
v 0.811067 0.388701 1.562998
v 0.811067 0.536275 1.562998
v 1.141740 0.388701 1.037476
v 1.141740 0.536275 1.037476
vt 0.625000 0.000000
vt 0.375000 0.250000
vt 0.375000 0.000000
vt 0.625000 0.250000
vt 0.375000 0.500000
vt 0.625000 0.500000
vt 0.375000 0.750000
vt 0.625000 0.750000
vt 0.375000 1.000000
vt 0.125000 0.750000
vt 0.125000 0.500000
vt 0.875000 0.500000
vt 0.625000 1.000000
vt 0.875000 0.750000
vn -0.8464 0.0000 -0.5326
vn 0.5326 0.0000 -0.8464
vn 0.8464 0.0000 0.5326
vn -0.5326 0.0000 0.8464
vn 0.0000 -1.0000 0.0000
vn 0.0000 1.0000 -0.0000
usemtl Material.002
s off
f 66/65/113 67/66/113 65/67/113
f 68/68/114 71/69/114 67/66/114
f 72/70/115 69/71/115 71/69/115
f 70/72/116 65/73/116 69/71/116
f 71/69/117 65/74/117 67/75/117
f 68/76/118 70/72/118 72/70/118
f 66/65/113 68/68/113 67/66/113
f 68/68/114 72/70/114 71/69/114
f 72/70/115 70/72/115 69/71/115
f 70/72/116 66/77/116 65/73/116
f 71/69/117 69/71/117 65/74/117
f 68/76/118 66/78/118 70/72/118
o Cube.003_Cube.004
v -0.589030 0.407909 -2.388021
v -0.589030 0.555483 -2.388021
v -0.258358 0.407909 -2.913543
v -0.258358 0.555483 -2.913543
v 2.134588 0.407909 -0.674248
v 2.134588 0.555483 -0.674248
v 2.465260 0.407909 -1.199771
v 2.465260 0.555483 -1.199771
vt 0.625000 0.000000
vt 0.375000 0.250000
vt 0.375000 0.000000
vt 0.625000 0.250000
vt 0.375000 0.500000
vt 0.625000 0.500000
vt 0.375000 0.750000
vt 0.625000 0.750000
vt 0.375000 1.000000
vt 0.125000 0.750000
vt 0.125000 0.500000
vt 0.875000 0.500000
vt 0.625000 1.000000
vt 0.875000 0.750000
vn -0.8464 0.0000 -0.5326
vn 0.5326 0.0000 -0.8464
vn 0.8464 0.0000 0.5326
vn -0.5326 0.0000 0.8464
vn 0.0000 -1.0000 -0.0000
vn 0.0000 1.0000 0.0000
usemtl Material.002
s off
f 74/79/119 75/80/119 73/81/119
f 76/82/120 79/83/120 75/80/120
f 80/84/121 77/85/121 79/83/121
f 78/86/122 73/87/122 77/85/122
f 79/83/123 73/88/123 75/89/123
f 76/90/124 78/86/124 80/84/124
f 74/79/119 76/82/119 75/80/119
f 76/82/120 80/84/120 79/83/120
f 80/84/121 78/86/121 77/85/121
f 78/86/122 74/91/122 73/87/122
f 79/83/123 77/85/123 73/88/123
f 76/90/124 74/92/124 78/86/124
