# Blender v2.92.0 OBJ File: ''
# www.blender.org
mtllib stars2.mtl
o Stars_Circle
v -1.015285 0.390990 1.087037
v 0.069891 0.782242 1.387925
v -0.486832 0.851133 1.646697
v -0.878933 1.262456 1.889019
v -1.146989 0.706522 1.916077
v -1.656101 0.404153 2.092225
v -1.265046 -0.008324 1.850176
v -1.187593 -0.606521 1.716720
v -0.677852 -0.305512 1.540067
v -0.120872 -0.372850 1.281439
v -0.196889 0.225662 1.414310
v 0.069891 0.782242 1.387925
v -0.486832 0.851133 1.646697
v -0.878933 1.262456 1.889019
v -1.146989 0.706522 1.916077
v -1.656101 0.404153 2.092225
v -1.265046 -0.008324 1.850176
v -1.187593 -0.606521 1.716720
v -0.677852 -0.305512 1.540067
v -0.120872 -0.372850 1.281439
v -0.196889 0.225662 1.414310
v -0.391446 0.158529 2.491058
v 0.069891 0.782242 1.387925
v -0.486832 0.851133 1.646697
v -0.878933 1.262456 1.889019
v -1.146989 0.706522 1.916077
v -1.656101 0.404153 2.092225
v -1.265046 -0.008324 1.850176
v -1.187593 -0.606521 1.716720
v -0.677852 -0.305512 1.540067
v -0.120872 -0.372850 1.281439
v -0.196889 0.225662 1.414310
v 0.069891 0.782242 1.387925
v -0.486832 0.851133 1.646697
v -0.878933 1.262456 1.889019
v -1.146989 0.706522 1.916077
v -1.656101 0.404153 2.092225
v -1.265046 -0.008324 1.850176
v -1.187593 -0.606521 1.716720
v -0.677852 -0.305512 1.540067
v -0.120872 -0.372850 1.281439
v -0.196889 0.225662 1.414310
v 0.172603 0.743968 1.619091
v -0.384120 0.812860 1.877862
v -0.776221 1.224182 2.120183
v -1.044277 0.668248 2.147242
v -1.553389 0.365880 2.323390
v -1.162334 -0.046598 2.081341
v -1.084881 -0.644795 1.947885
v -0.575140 -0.343786 1.771232
v -0.018160 -0.411123 1.512604
v -0.094177 0.187388 1.645475
vt 0.500000 0.500000
vt 0.206107 0.904508
vt 0.500000 1.000000
vt 0.024472 0.654508
vt 0.024472 0.345491
vt 0.206107 0.095491
vt 0.500000 0.000000
vt 0.793893 0.095492
vt 0.975528 0.345491
vt 0.975528 0.654509
vt 0.793893 0.904509
vt 0.024472 0.345491
vt 0.206107 0.095491
vt 0.024472 0.345491
vt 0.975528 0.654509
vt 0.793893 0.904509
vt 0.975528 0.654509
vt 0.500000 1.000000
vt 0.206107 0.904508
vt 0.500000 1.000000
vt 0.206107 0.904508
vt 0.024472 0.654508
vt 0.793893 0.095492
vt 0.975528 0.345491
vt 0.793893 0.095492
vt 0.206107 0.095491
vt 0.500000 0.000000
vt 0.793893 0.904509
vt 0.024472 0.654508
vt 0.975528 0.345491
vt 0.500000 0.000000
vt 0.793893 0.095492
vt 0.500000 0.000000
vt 0.206107 0.095491
vt 0.024472 0.345491
vt 0.793893 0.904509
vt 0.975528 0.654509
vt 0.206107 0.904508
vt 0.500000 1.000000
vt 0.024472 0.654508
vt 0.975528 0.345491
vt 0.500000 0.000000
vt 0.206107 0.095491
vt 0.024472 0.345491
vt 0.500000 1.000000
vt 0.975528 0.654509
vt 0.206107 0.904508
vt 0.793893 0.095492
vt 0.793893 0.904509
vt 0.024472 0.654508
vt 0.975528 0.345491
vt 0.500000 0.500000
vn -0.1487 0.8281 -0.5404
vn 0.2193 0.6419 -0.7348
vn -0.8671 0.4039 -0.2915
vn -0.5657 0.7368 -0.3703
vn -0.7600 -0.4396 -0.4787
vn -0.9417 -0.0476 -0.3331
vn 0.0246 -0.5367 -0.8434
vn -0.3891 -0.6273 -0.6746
vn 0.4024 0.2468 -0.8816
vn 0.3284 -0.2012 -0.9229
vn 0.0000 0.0000 1.0000
vn -0.9072 -0.2000 0.3700
vn -0.3996 0.8591 0.3198
vn 0.1634 0.9824 0.0900
vn 0.9076 0.1975 -0.3705
vn 0.6603 0.7310 -0.1724
vn 0.3975 -0.8604 -0.3191
vn -0.6619 -0.7293 0.1734
vn 0.8077 -0.4073 -0.4263
vn -0.8066 0.4096 0.4262
vn -0.1611 -0.9827 -0.0911
vn 0.7588 0.4408 0.4795
vn -0.3276 0.2029 0.9228
vn -0.0262 0.5357 0.8440
vn -0.2205 -0.6406 0.7355
vn 0.1504 -0.8283 0.5396
vn 0.9419 0.0458 0.3327
vn 0.3908 0.6271 0.6738
vn -0.4022 -0.2487 0.8812
vn 0.5641 -0.7377 0.3708
vn 0.8679 -0.4022 0.2914
usemtl Material.001
s off
f 1/1/1 3/2/1 2/3/1
f 1/1/2 4/4/2 3/2/2
f 1/1/3 5/5/3 4/4/3
f 1/1/4 6/6/4 5/5/4
f 1/1/5 7/7/5 6/6/5
f 1/1/6 8/8/6 7/7/6
f 1/1/7 9/9/7 8/8/7
f 1/1/8 10/10/8 9/9/8
f 1/1/9 11/11/9 10/10/9
f 1/1/10 2/3/10 11/11/10
f 15/12/11 27/13/11 26/14/11
f 20/15/11 32/16/11 31/17/11
f 12/18/11 24/19/11 23/20/11
f 13/21/11 25/22/11 24/19/11
f 18/23/11 30/24/11 29/25/11
f 16/26/11 28/27/11 27/13/11
f 21/28/11 23/20/11 32/16/11
f 14/29/11 26/14/11 25/22/11
f 19/30/11 31/17/11 30/24/11
f 17/31/11 29/25/11 28/27/11
f 10/10/11 21/28/11 20/15/11
f 2/3/11 13/21/11 12/18/11
f 5/5/11 16/26/11 15/12/11
f 7/7/11 18/23/11 17/31/11
f 9/9/11 20/15/11 19/30/11
f 4/4/11 15/12/11 14/29/11
f 11/11/11 12/18/11 21/28/11
f 6/6/11 17/31/11 16/26/11
f 8/8/11 19/30/11 18/23/11
f 3/2/11 14/29/11 13/21/11
f 28/27/11 39/32/11 38/33/11
f 26/14/11 37/34/11 36/35/11
f 31/17/11 42/36/11 41/37/11
f 23/20/11 34/38/11 33/39/11
f 24/19/11 35/40/11 34/38/11
f 29/25/11 40/41/11 39/32/11
f 27/13/11 38/33/11 37/34/11
f 32/16/11 33/39/11 42/36/11
f 25/22/11 36/35/11 35/40/11
f 30/24/11 41/37/11 40/41/11
f 39/32/12 48/42/12 38/33/12
f 36/35/13 47/43/13 46/44/13
f 34/38/14 43/45/14 33/39/14
f 42/36/15 51/46/15 41/37/15
f 35/40/16 44/47/16 34/38/16
f 40/41/17 49/48/17 39/32/17
f 38/33/18 47/43/18 37/34/18
f 33/39/19 52/49/19 42/36/19
f 36/35/20 45/50/20 35/40/20
f 41/37/21 50/51/21 40/41/21
f 22/52/22 44/47/22 45/50/22
f 22/52/23 45/50/23 46/44/23
f 22/52/24 46/44/24 47/43/24
f 22/52/25 47/43/25 48/42/25
f 22/52/26 50/51/26 51/46/26
f 22/52/27 51/46/27 52/49/27
f 15/12/11 16/26/11 27/13/11
f 20/15/11 21/28/11 32/16/11
f 12/18/11 13/21/11 24/19/11
f 13/21/11 14/29/11 25/22/11
f 18/23/11 19/30/11 30/24/11
f 16/26/11 17/31/11 28/27/11
f 21/28/11 12/18/11 23/20/11
f 14/29/11 15/12/11 26/14/11
f 19/30/11 20/15/11 31/17/11
f 17/31/11 18/23/11 29/25/11
f 10/10/11 11/11/11 21/28/11
f 2/3/11 3/2/11 13/21/11
f 5/5/11 6/6/11 16/26/11
f 7/7/11 8/8/11 18/23/11
f 9/9/11 10/10/11 20/15/11
f 4/4/11 5/5/11 15/12/11
f 11/11/11 2/3/11 12/18/11
f 6/6/11 7/7/11 17/31/11
f 8/8/11 9/9/11 19/30/11
f 3/2/11 4/4/11 14/29/11
f 28/27/11 29/25/11 39/32/11
f 26/14/11 27/13/11 37/34/11
f 31/17/11 32/16/11 42/36/11
f 23/20/11 24/19/11 34/38/11
f 24/19/11 25/22/11 35/40/11
f 29/25/11 30/24/11 40/41/11
f 27/13/11 28/27/11 38/33/11
f 32/16/11 23/20/11 33/39/11
f 25/22/11 26/14/11 36/35/11
f 30/24/11 31/17/11 41/37/11
f 39/32/12 49/48/12 48/42/12
f 36/35/13 37/34/13 47/43/13
f 34/38/14 44/47/14 43/45/14
f 42/36/15 52/49/15 51/46/15
f 35/40/16 45/50/16 44/47/16
f 40/41/17 50/51/17 49/48/17
f 38/33/18 48/42/18 47/43/18
f 33/39/19 43/45/19 52/49/19
f 36/35/20 46/44/20 45/50/20
f 41/37/21 51/46/21 50/51/21
usemtl Material.002
f 22/52/28 43/45/28 44/47/28
f 22/52/29 48/42/29 49/48/29
f 22/52/30 49/48/30 50/51/30
f 22/52/31 52/49/31 43/45/31
