# Blender v2.92.0 OBJ File: ''
# www.blender.org
mtllib stars.mtl
o Circle
v -0.009132 0.295974 0.001070
v -0.502747 0.085464 0.865559
v -0.567309 0.085745 0.251164
v -0.979237 0.072228 -0.209033
v -0.415285 0.094634 -0.460239
v -0.105277 0.108703 -0.994418
v 0.307827 0.122269 -0.535277
v 0.911351 0.144482 -0.405220
v 0.602711 0.130461 0.129751
v 0.665700 0.130119 0.744309
v 0.061846 0.107887 0.615798
v -0.502747 0.085464 0.865559
v -0.567309 0.085745 0.251164
v -0.979237 0.072228 -0.209033
v -0.415285 0.094634 -0.460239
v -0.105277 0.108703 -0.994418
v 0.307827 0.122269 -0.535277
v 0.911351 0.144482 -0.405220
v 0.602711 0.130461 0.129751
v 0.665700 0.130119 0.744309
v 0.061846 0.107887 0.615798
v 0.014701 -0.335227 -0.001723
v -0.502747 0.085464 0.865559
v -0.567309 0.085745 0.251164
v -0.979237 0.072228 -0.209033
v -0.415285 0.094634 -0.460239
v -0.105277 0.108703 -0.994418
v 0.307827 0.122269 -0.535277
v 0.911351 0.144482 -0.405220
v 0.602711 0.130461 0.129751
v 0.665700 0.130119 0.744309
v 0.061846 0.107887 0.615798
v -0.502747 0.085464 0.865559
v -0.567309 0.085745 0.251164
v -0.979237 0.072228 -0.209033
v -0.415285 0.094634 -0.460239
v -0.105277 0.108703 -0.994418
v 0.307827 0.122269 -0.535277
v 0.911351 0.144482 -0.405220
v 0.602711 0.130461 0.129751
v 0.665700 0.130119 0.744309
v 0.061846 0.107887 0.615798
v -0.493094 -0.170187 0.864427
v -0.557656 -0.169906 0.250033
v -0.969584 -0.183423 -0.210165
v -0.405632 -0.161018 -0.461371
v -0.095624 -0.146948 -0.995549
v 0.317480 -0.133382 -0.536408
v 0.921004 -0.111169 -0.406351
v 0.612364 -0.125191 0.128620
v 0.675354 -0.125532 0.743178
v 0.071499 -0.147764 0.614667
vt 0.500000 0.500000
vt 0.206107 0.904508
vt 0.500000 1.000000
vt 0.024472 0.654508
vt 0.024472 0.345491
vt 0.206107 0.095491
vt 0.500000 0.000000
vt 0.793893 0.095492
vt 0.975528 0.345491
vt 0.975528 0.654509
vt 0.793893 0.904509
vt 0.024472 0.345491
vt 0.206107 0.095491
vt 0.206107 0.095491
vt 0.024472 0.345491
vt 0.975528 0.654509
vt 0.793893 0.904509
vt 0.793893 0.904509
vt 0.975528 0.654509
vt 0.500000 1.000000
vt 0.206107 0.904508
vt 0.206107 0.904508
vt 0.500000 1.000000
vt 0.024472 0.654508
vt 0.024472 0.654508
vt 0.793893 0.095492
vt 0.975528 0.345491
vt 0.975528 0.345491
vt 0.793893 0.095492
vt 0.500000 0.000000
vt 0.500000 0.000000
vt 0.793893 0.095492
vt 0.500000 0.000000
vt 0.206107 0.095491
vt 0.024472 0.345491
vt 0.793893 0.904509
vt 0.975528 0.654509
vt 0.206107 0.904508
vt 0.500000 1.000000
vt 0.024472 0.654508
vt 0.975528 0.345491
vt 0.793893 0.095492
vt 0.500000 0.000000
vt 0.206107 0.095491
vt 0.024472 0.345491
vt 0.206107 0.904508
vt 0.500000 1.000000
vt 0.793893 0.904509
vt 0.975528 0.654509
vt 0.024472 0.654508
vt 0.975528 0.345491
vt 0.500000 0.500000
vn -0.3381 0.9404 0.0360
vn -0.2622 0.9425 0.2070
vn -0.1595 0.9485 -0.2735
vn -0.2987 0.9427 -0.1485
vn 0.1898 0.9614 -0.1992
vn 0.0280 0.9557 -0.2930
vn 0.2272 0.9612 0.1563
vn 0.2663 0.9635 -0.0268
vn -0.0991 0.9483 0.3016
vn 0.0869 0.9554 0.2823
vn 0.0000 0.0000 1.0000
vn 0.2102 0.0123 -0.9776
vn -0.8642 -0.0304 -0.5023
vn -0.9938 -0.0380 0.1044
vn -0.2077 -0.0122 0.9781
vn -0.7443 -0.0311 0.6671
vn 0.8654 0.0305 0.5001
vn 0.7426 0.0310 -0.6690
vn 0.4042 0.0112 0.9146
vn -0.4065 -0.0113 -0.9136
vn 0.9941 0.0380 -0.1019
vn -0.2662 -0.9635 0.0275
vn -0.1903 -0.9614 0.1986
vn -0.0876 -0.9554 -0.2820
vn -0.2268 -0.9612 -0.1569
vn 0.2617 -0.9426 -0.2076
vn 0.0999 -0.9482 -0.3014
vn 0.2991 -0.9427 0.1478
vn 0.3382 -0.9404 -0.0352
vn -0.0272 -0.9557 0.2932
vn 0.1588 -0.9486 0.2739
usemtl None
s off
f 1/1/1 3/2/1 2/3/1
f 1/1/2 4/4/2 3/2/2
f 1/1/3 5/5/3 4/4/3
f 1/1/4 6/6/4 5/5/4
f 1/1/5 7/7/5 6/6/5
f 1/1/6 8/8/6 7/7/6
f 1/1/7 9/9/7 8/8/7
f 1/1/8 10/10/8 9/9/8
f 1/1/9 11/11/9 10/10/9
f 1/1/10 2/3/10 11/11/10
f 15/12/11 16/13/11 27/14/11 26/15/11
f 20/16/11 21/17/11 32/18/11 31/19/11
f 12/20/11 13/21/11 24/22/11 23/23/11
f 13/21/11 14/24/11 25/25/11 24/22/11
f 18/26/11 19/27/11 30/28/11 29/29/11
f 16/13/11 17/30/11 28/31/11 27/14/11
f 21/17/11 12/20/11 23/23/11 32/18/11
f 14/24/11 15/12/11 26/15/11 25/25/11
f 19/27/11 20/16/11 31/19/11 30/28/11
f 17/30/11 18/26/11 29/29/11 28/31/11
f 10/10/11 11/11/11 21/17/11 20/16/11
f 2/3/11 3/2/11 13/21/11 12/20/11
f 5/5/11 6/6/11 16/13/11 15/12/11
f 7/7/11 8/8/11 18/26/11 17/30/11
f 9/9/11 10/10/11 20/16/11 19/27/11
f 4/4/11 5/5/11 15/12/11 14/24/11
f 11/11/11 2/3/11 12/20/11 21/17/11
f 6/6/11 7/7/11 17/30/11 16/13/11
f 8/8/11 9/9/11 19/27/11 18/26/11
f 3/2/11 4/4/11 14/24/11 13/21/11
f 28/31/11 29/29/11 39/32/11 38/33/11
f 26/15/11 27/14/11 37/34/11 36/35/11
f 31/19/11 32/18/11 42/36/11 41/37/11
f 23/23/11 24/22/11 34/38/11 33/39/11
f 24/22/11 25/25/11 35/40/11 34/38/11
f 29/29/11 30/28/11 40/41/11 39/32/11
f 27/14/11 28/31/11 38/33/11 37/34/11
f 32/18/11 23/23/11 33/39/11 42/36/11
f 25/25/11 26/15/11 36/35/11 35/40/11
f 30/28/11 31/19/11 41/37/11 40/41/11
f 38/33/12 39/32/12 49/42/12 48/43/12
f 36/35/13 37/34/13 47/44/13 46/45/13
f 33/39/14 34/38/14 44/46/14 43/47/14
f 41/37/15 42/36/15 52/48/15 51/49/15
f 34/38/16 35/40/16 45/50/16 44/46/16
f 39/32/17 40/41/17 50/51/17 49/42/17
f 37/34/18 38/33/18 48/43/18 47/44/18
f 42/36/19 33/39/19 43/47/19 52/48/19
f 35/40/20 36/35/20 46/45/20 45/50/20
f 40/41/21 41/37/21 51/49/21 50/51/21
f 22/52/22 43/47/22 44/46/22
f 22/52/23 44/46/23 45/50/23
f 22/52/24 45/50/24 46/45/24
f 22/52/25 46/45/25 47/44/25
f 22/52/26 47/44/26 48/43/26
f 22/52/27 48/43/27 49/42/27
f 22/52/28 49/42/28 50/51/28
f 22/52/29 50/51/29 51/49/29
f 22/52/30 51/49/30 52/48/30
f 22/52/31 52/48/31 43/47/31
